<svg width="265" height="42" viewBox="0 0 265 42" fill="none" xmlns="http://www.w3.org/2000/svg">
<path fill-rule="evenodd" clip-rule="evenodd" d="M6 0H36C39.3137 0 42 2.68629 42 6V36C42 39.3137 39.3137 42 36 42H6C2.68629 42 0 39.3137 0 36V6C0 2.68629 2.68629 0 6 0Z" fill="#05595B"/>
<path fill-rule="evenodd" clip-rule="evenodd" d="M13.7998 31.8108V10.2H28.2694V14.2851H18.6646V18.8069H27.2091V22.892H18.6646V31.8108H13.7998Z" fill="#E2D784"/>
<path d="M59.92 32V15.368H71.056V18.512H63.664V21.992H70.24V25.136H63.664V32H59.92ZM78.5733 15.176C81.0693 15.176 82.9813 15.624 84.3093 16.52C85.6373 17.4 86.3013 18.776 86.3013 20.648C86.3013 21.816 86.0293 22.768 85.4853 23.504C84.9573 24.224 84.1893 24.792 83.1813 25.208C83.5173 25.624 83.8693 26.104 84.2373 26.648C84.6053 27.176 84.9653 27.736 85.3173 28.328C85.6853 28.904 86.0373 29.512 86.3733 30.152C86.7093 30.776 87.0213 31.392 87.3093 32H83.1093C82.8053 31.456 82.4933 30.904 82.1733 30.344C81.8693 29.784 81.5493 29.24 81.2133 28.712C80.8933 28.184 80.5733 27.688 80.2533 27.224C79.9333 26.744 79.6133 26.312 79.2933 25.928H77.4453V32H73.7013V15.608C74.5173 15.448 75.3573 15.336 76.2213 15.272C77.1013 15.208 77.8853 15.176 78.5733 15.176ZM78.7893 18.368C78.5173 18.368 78.2693 18.376 78.0453 18.392C77.8373 18.408 77.6373 18.424 77.4453 18.44V22.952H78.5013C79.9093 22.952 80.9173 22.776 81.5253 22.424C82.1333 22.072 82.4373 21.472 82.4373 20.624C82.4373 19.808 82.1253 19.232 81.5013 18.896C80.8933 18.544 79.9893 18.368 78.7893 18.368ZM92.8531 23.672C92.8531 24.488 92.9491 25.224 93.1411 25.88C93.3491 26.536 93.6371 27.104 94.0051 27.584C94.3891 28.048 94.8531 28.408 95.3971 28.664C95.9411 28.92 96.5651 29.048 97.2691 29.048C97.9571 29.048 98.5731 28.92 99.1171 28.664C99.6771 28.408 100.141 28.048 100.509 27.584C100.893 27.104 101.181 26.536 101.373 25.88C101.581 25.224 101.685 24.488 101.685 23.672C101.685 22.856 101.581 22.12 101.373 21.464C101.181 20.792 100.893 20.224 100.509 19.76C100.141 19.28 99.6771 18.912 99.1171 18.656C98.5731 18.4 97.9571 18.272 97.2691 18.272C96.5651 18.272 95.9411 18.408 95.3971 18.68C94.8531 18.936 94.3891 19.304 94.0051 19.784C93.6371 20.248 93.3491 20.816 93.1411 21.488C92.9491 22.144 92.8531 22.872 92.8531 23.672ZM105.549 23.672C105.549 25.096 105.333 26.352 104.901 27.44C104.485 28.512 103.909 29.416 103.173 30.152C102.437 30.872 101.557 31.416 100.533 31.784C99.5251 32.152 98.4371 32.336 97.2691 32.336C96.1331 32.336 95.0611 32.152 94.0531 31.784C93.0451 31.416 92.1651 30.872 91.4131 30.152C90.6611 29.416 90.0691 28.512 89.6371 27.44C89.2051 26.352 88.9891 25.096 88.9891 23.672C88.9891 22.248 89.2131 21 89.6611 19.928C90.1091 18.84 90.7091 17.928 91.4611 17.192C92.2291 16.456 93.1091 15.904 94.1011 15.536C95.1091 15.168 96.1651 14.984 97.2691 14.984C98.4051 14.984 99.4771 15.168 100.485 15.536C101.493 15.904 102.373 16.456 103.125 17.192C103.877 17.928 104.469 18.84 104.901 19.928C105.333 21 105.549 22.248 105.549 23.672ZM119.83 32C118.758 30.096 117.598 28.216 116.35 26.36C115.102 24.504 113.774 22.752 112.366 21.104V32H108.67V15.368H111.718C112.246 15.896 112.83 16.544 113.47 17.312C114.11 18.08 114.758 18.904 115.414 19.784C116.086 20.648 116.75 21.552 117.406 22.496C118.062 23.424 118.678 24.32 119.254 25.184V15.368H122.974V32H119.83ZM139.147 15.368V18.56H134.131V32H130.387V18.56H125.371V15.368H139.147ZM156.414 26.408C156.414 27.224 156.318 27.992 156.126 28.712C155.95 29.432 155.63 30.064 155.166 30.608C154.718 31.136 154.102 31.56 153.318 31.88C152.55 32.184 151.574 32.336 150.39 32.336C149.302 32.336 148.366 32.208 147.582 31.952C146.798 31.68 146.15 31.368 145.638 31.016L146.886 28.112C147.35 28.384 147.846 28.624 148.374 28.832C148.902 29.04 149.478 29.144 150.102 29.144C151.014 29.144 151.67 28.92 152.07 28.472C152.47 28.024 152.67 27.272 152.67 26.216V15.368H156.414V26.408ZM163.166 23.672C163.166 24.488 163.262 25.224 163.454 25.88C163.662 26.536 163.95 27.104 164.318 27.584C164.702 28.048 165.166 28.408 165.71 28.664C166.254 28.92 166.878 29.048 167.582 29.048C168.27 29.048 168.886 28.92 169.43 28.664C169.99 28.408 170.454 28.048 170.822 27.584C171.206 27.104 171.494 26.536 171.686 25.88C171.894 25.224 171.998 24.488 171.998 23.672C171.998 22.856 171.894 22.12 171.686 21.464C171.494 20.792 171.206 20.224 170.822 19.76C170.454 19.28 169.99 18.912 169.43 18.656C168.886 18.4 168.27 18.272 167.582 18.272C166.878 18.272 166.254 18.408 165.71 18.68C165.166 18.936 164.702 19.304 164.318 19.784C163.95 20.248 163.662 20.816 163.454 21.488C163.262 22.144 163.166 22.872 163.166 23.672ZM175.862 23.672C175.862 25.096 175.646 26.352 175.214 27.44C174.798 28.512 174.222 29.416 173.486 30.152C172.75 30.872 171.87 31.416 170.846 31.784C169.838 32.152 168.75 32.336 167.582 32.336C166.446 32.336 165.374 32.152 164.366 31.784C163.358 31.416 162.478 30.872 161.726 30.152C160.974 29.416 160.382 28.512 159.95 27.44C159.518 26.352 159.302 25.096 159.302 23.672C159.302 22.248 159.526 21 159.974 19.928C160.422 18.84 161.022 17.928 161.774 17.192C162.542 16.456 163.422 15.904 164.414 15.536C165.422 15.168 166.478 14.984 167.582 14.984C168.718 14.984 169.79 15.168 170.798 15.536C171.806 15.904 172.686 16.456 173.438 17.192C174.19 17.928 174.782 18.84 175.214 19.928C175.646 21 175.862 22.248 175.862 23.672ZM185.487 32.336C184.319 32.336 183.311 32.176 182.463 31.856C181.615 31.52 180.911 31.064 180.351 30.488C179.807 29.896 179.399 29.2 179.127 28.4C178.871 27.584 178.743 26.688 178.743 25.712V15.368H182.487V25.4C182.487 26.072 182.559 26.648 182.703 27.128C182.863 27.592 183.071 27.976 183.327 28.28C183.599 28.568 183.919 28.776 184.287 28.904C184.671 29.032 185.087 29.096 185.535 29.096C186.447 29.096 187.183 28.816 187.743 28.256C188.319 27.696 188.607 26.744 188.607 25.4V15.368H192.351V25.712C192.351 26.688 192.215 27.584 191.943 28.4C191.671 29.216 191.255 29.92 190.695 30.512C190.135 31.088 189.423 31.536 188.559 31.856C187.695 32.176 186.671 32.336 185.487 32.336ZM200.823 15.176C203.319 15.176 205.231 15.624 206.559 16.52C207.887 17.4 208.551 18.776 208.551 20.648C208.551 21.816 208.279 22.768 207.735 23.504C207.207 24.224 206.439 24.792 205.431 25.208C205.767 25.624 206.119 26.104 206.487 26.648C206.855 27.176 207.215 27.736 207.567 28.328C207.935 28.904 208.287 29.512 208.623 30.152C208.959 30.776 209.271 31.392 209.559 32H205.359C205.055 31.456 204.743 30.904 204.423 30.344C204.119 29.784 203.799 29.24 203.463 28.712C203.143 28.184 202.823 27.688 202.503 27.224C202.183 26.744 201.863 26.312 201.543 25.928H199.695V32H195.951V15.608C196.767 15.448 197.607 15.336 198.471 15.272C199.351 15.208 200.135 15.176 200.823 15.176ZM201.039 18.368C200.767 18.368 200.519 18.376 200.295 18.392C200.087 18.408 199.887 18.424 199.695 18.44V22.952H200.751C202.159 22.952 203.167 22.776 203.775 22.424C204.383 22.072 204.687 21.472 204.687 20.624C204.687 19.808 204.375 19.232 203.751 18.896C203.143 18.544 202.239 18.368 201.039 18.368ZM223.119 32C222.047 30.096 220.887 28.216 219.639 26.36C218.391 24.504 217.063 22.752 215.655 21.104V32H211.959V15.368H215.007C215.535 15.896 216.119 16.544 216.759 17.312C217.399 18.08 218.047 18.904 218.703 19.784C219.375 20.648 220.039 21.552 220.695 22.496C221.351 23.424 221.967 24.32 222.543 25.184V15.368H226.263V32H223.119ZM241.236 32C241.06 31.424 240.86 30.832 240.636 30.224C240.428 29.616 240.22 29.008 240.012 28.4H233.532C233.324 29.008 233.108 29.616 232.884 30.224C232.676 30.832 232.484 31.424 232.308 32H228.42C229.044 30.208 229.636 28.552 230.196 27.032C230.756 25.512 231.3 24.08 231.828 22.736C232.372 21.392 232.9 20.12 233.412 18.92C233.94 17.704 234.484 16.52 235.044 15.368H238.62C239.164 16.52 239.7 17.704 240.228 18.92C240.756 20.12 241.284 21.392 241.812 22.736C242.356 24.08 242.908 25.512 243.468 27.032C244.028 28.552 244.62 30.208 245.244 32H241.236ZM236.748 19.136C236.668 19.376 236.548 19.704 236.388 20.12C236.228 20.536 236.044 21.016 235.836 21.56C235.628 22.104 235.396 22.704 235.14 23.36C234.9 24.016 234.652 24.704 234.396 25.424H239.124C238.868 24.704 238.62 24.016 238.38 23.36C238.14 22.704 237.908 22.104 237.684 21.56C237.476 21.016 237.292 20.536 237.132 20.12C236.972 19.704 236.844 19.376 236.748 19.136ZM258.509 28.784V32H247.397V15.368H251.141V28.784H258.509Z" fill="#E2D784"/>
</svg>
