<svg width="243" height="32" viewBox="0 0 243 32" fill="none" xmlns="http://www.w3.org/2000/svg">
<path fill-rule="evenodd" clip-rule="evenodd" d="M4.57143 0H27.4286C29.9533 0 32 2.0467 32 4.57143V27.4286C32 29.9533 29.9533 32 27.4286 32H4.57143C2.0467 32 0 29.9533 0 27.4286V4.57143C0 2.0467 2.0467 0 4.57143 0Z" fill="#05595B"/>
<path fill-rule="evenodd" clip-rule="evenodd" d="M10.5142 24.2369V7.77148H21.5386V10.884H14.2207V14.3291H20.7308V17.4416H14.2207V24.2369H10.5142Z" fill="#E2D784"/>
<path d="M37.92 25V8.368H49.056V11.512H41.664V14.992H48.24V18.136H41.664V25H37.92ZM56.5733 8.176C59.0693 8.176 60.9813 8.624 62.3093 9.52C63.6373 10.4 64.3013 11.776 64.3013 13.648C64.3013 14.816 64.0293 15.768 63.4853 16.504C62.9573 17.224 62.1893 17.792 61.1813 18.208C61.5173 18.624 61.8693 19.104 62.2373 19.648C62.6053 20.176 62.9653 20.736 63.3173 21.328C63.6853 21.904 64.0373 22.512 64.3733 23.152C64.7093 23.776 65.0213 24.392 65.3093 25H61.1093C60.8053 24.456 60.4933 23.904 60.1733 23.344C59.8693 22.784 59.5493 22.24 59.2133 21.712C58.8933 21.184 58.5733 20.688 58.2533 20.224C57.9333 19.744 57.6133 19.312 57.2933 18.928H55.4453V25H51.7013V8.608C52.5173 8.448 53.3573 8.336 54.2213 8.272C55.1013 8.208 55.8853 8.176 56.5733 8.176ZM56.7893 11.368C56.5173 11.368 56.2693 11.376 56.0453 11.392C55.8373 11.408 55.6373 11.424 55.4453 11.44V15.952H56.5013C57.9093 15.952 58.9173 15.776 59.5253 15.424C60.1333 15.072 60.4373 14.472 60.4373 13.624C60.4373 12.808 60.1253 12.232 59.5013 11.896C58.8933 11.544 57.9893 11.368 56.7893 11.368ZM70.8531 16.672C70.8531 17.488 70.9491 18.224 71.1411 18.88C71.3491 19.536 71.6371 20.104 72.0051 20.584C72.3891 21.048 72.8531 21.408 73.3971 21.664C73.9411 21.92 74.5651 22.048 75.2691 22.048C75.9571 22.048 76.5731 21.92 77.1171 21.664C77.6771 21.408 78.1411 21.048 78.5091 20.584C78.8931 20.104 79.1811 19.536 79.3731 18.88C79.5811 18.224 79.6851 17.488 79.6851 16.672C79.6851 15.856 79.5811 15.12 79.3731 14.464C79.1811 13.792 78.8931 13.224 78.5091 12.76C78.1411 12.28 77.6771 11.912 77.1171 11.656C76.5731 11.4 75.9571 11.272 75.2691 11.272C74.5651 11.272 73.9411 11.408 73.3971 11.68C72.8531 11.936 72.3891 12.304 72.0051 12.784C71.6371 13.248 71.3491 13.816 71.1411 14.488C70.9491 15.144 70.8531 15.872 70.8531 16.672ZM83.5491 16.672C83.5491 18.096 83.3331 19.352 82.9011 20.44C82.4851 21.512 81.9091 22.416 81.1731 23.152C80.4371 23.872 79.5571 24.416 78.5331 24.784C77.5251 25.152 76.4371 25.336 75.2691 25.336C74.1331 25.336 73.0611 25.152 72.0531 24.784C71.0451 24.416 70.1651 23.872 69.4131 23.152C68.6611 22.416 68.0691 21.512 67.6371 20.44C67.2051 19.352 66.9891 18.096 66.9891 16.672C66.9891 15.248 67.2131 14 67.6611 12.928C68.1091 11.84 68.7091 10.928 69.4611 10.192C70.2291 9.456 71.1091 8.904 72.1011 8.536C73.1091 8.168 74.1651 7.984 75.2691 7.984C76.4051 7.984 77.4771 8.168 78.4851 8.536C79.4931 8.904 80.3731 9.456 81.1251 10.192C81.8771 10.928 82.4691 11.84 82.9011 12.928C83.3331 14 83.5491 15.248 83.5491 16.672ZM97.83 25C96.758 23.096 95.598 21.216 94.35 19.36C93.102 17.504 91.774 15.752 90.366 14.104V25H86.67V8.368H89.718C90.246 8.896 90.83 9.544 91.47 10.312C92.11 11.08 92.758 11.904 93.414 12.784C94.086 13.648 94.75 14.552 95.406 15.496C96.062 16.424 96.678 17.32 97.254 18.184V8.368H100.974V25H97.83ZM117.147 8.368V11.56H112.131V25H108.387V11.56H103.371V8.368H117.147ZM134.414 19.408C134.414 20.224 134.318 20.992 134.126 21.712C133.95 22.432 133.63 23.064 133.166 23.608C132.718 24.136 132.102 24.56 131.318 24.88C130.55 25.184 129.574 25.336 128.39 25.336C127.302 25.336 126.366 25.208 125.582 24.952C124.798 24.68 124.15 24.368 123.638 24.016L124.886 21.112C125.35 21.384 125.846 21.624 126.374 21.832C126.902 22.04 127.478 22.144 128.102 22.144C129.014 22.144 129.67 21.92 130.07 21.472C130.47 21.024 130.67 20.272 130.67 19.216V8.368H134.414V19.408ZM141.166 16.672C141.166 17.488 141.262 18.224 141.454 18.88C141.662 19.536 141.95 20.104 142.318 20.584C142.702 21.048 143.166 21.408 143.71 21.664C144.254 21.92 144.878 22.048 145.582 22.048C146.27 22.048 146.886 21.92 147.43 21.664C147.99 21.408 148.454 21.048 148.822 20.584C149.206 20.104 149.494 19.536 149.686 18.88C149.894 18.224 149.998 17.488 149.998 16.672C149.998 15.856 149.894 15.12 149.686 14.464C149.494 13.792 149.206 13.224 148.822 12.76C148.454 12.28 147.99 11.912 147.43 11.656C146.886 11.4 146.27 11.272 145.582 11.272C144.878 11.272 144.254 11.408 143.71 11.68C143.166 11.936 142.702 12.304 142.318 12.784C141.95 13.248 141.662 13.816 141.454 14.488C141.262 15.144 141.166 15.872 141.166 16.672ZM153.862 16.672C153.862 18.096 153.646 19.352 153.214 20.44C152.798 21.512 152.222 22.416 151.486 23.152C150.75 23.872 149.87 24.416 148.846 24.784C147.838 25.152 146.75 25.336 145.582 25.336C144.446 25.336 143.374 25.152 142.366 24.784C141.358 24.416 140.478 23.872 139.726 23.152C138.974 22.416 138.382 21.512 137.95 20.44C137.518 19.352 137.302 18.096 137.302 16.672C137.302 15.248 137.526 14 137.974 12.928C138.422 11.84 139.022 10.928 139.774 10.192C140.542 9.456 141.422 8.904 142.414 8.536C143.422 8.168 144.478 7.984 145.582 7.984C146.718 7.984 147.79 8.168 148.798 8.536C149.806 8.904 150.686 9.456 151.438 10.192C152.19 10.928 152.782 11.84 153.214 12.928C153.646 14 153.862 15.248 153.862 16.672ZM163.487 25.336C162.319 25.336 161.311 25.176 160.463 24.856C159.615 24.52 158.911 24.064 158.351 23.488C157.807 22.896 157.399 22.2 157.127 21.4C156.871 20.584 156.743 19.688 156.743 18.712V8.368H160.487V18.4C160.487 19.072 160.559 19.648 160.703 20.128C160.863 20.592 161.071 20.976 161.327 21.28C161.599 21.568 161.919 21.776 162.287 21.904C162.671 22.032 163.087 22.096 163.535 22.096C164.447 22.096 165.183 21.816 165.743 21.256C166.319 20.696 166.607 19.744 166.607 18.4V8.368H170.351V18.712C170.351 19.688 170.215 20.584 169.943 21.4C169.671 22.216 169.255 22.92 168.695 23.512C168.135 24.088 167.423 24.536 166.559 24.856C165.695 25.176 164.671 25.336 163.487 25.336ZM178.823 8.176C181.319 8.176 183.231 8.624 184.559 9.52C185.887 10.4 186.551 11.776 186.551 13.648C186.551 14.816 186.279 15.768 185.735 16.504C185.207 17.224 184.439 17.792 183.431 18.208C183.767 18.624 184.119 19.104 184.487 19.648C184.855 20.176 185.215 20.736 185.567 21.328C185.935 21.904 186.287 22.512 186.623 23.152C186.959 23.776 187.271 24.392 187.559 25H183.359C183.055 24.456 182.743 23.904 182.423 23.344C182.119 22.784 181.799 22.24 181.463 21.712C181.143 21.184 180.823 20.688 180.503 20.224C180.183 19.744 179.863 19.312 179.543 18.928H177.695V25H173.951V8.608C174.767 8.448 175.607 8.336 176.471 8.272C177.351 8.208 178.135 8.176 178.823 8.176ZM179.039 11.368C178.767 11.368 178.519 11.376 178.295 11.392C178.087 11.408 177.887 11.424 177.695 11.44V15.952H178.751C180.159 15.952 181.167 15.776 181.775 15.424C182.383 15.072 182.687 14.472 182.687 13.624C182.687 12.808 182.375 12.232 181.751 11.896C181.143 11.544 180.239 11.368 179.039 11.368ZM201.119 25C200.047 23.096 198.887 21.216 197.639 19.36C196.391 17.504 195.063 15.752 193.655 14.104V25H189.959V8.368H193.007C193.535 8.896 194.119 9.544 194.759 10.312C195.399 11.08 196.047 11.904 196.703 12.784C197.375 13.648 198.039 14.552 198.695 15.496C199.351 16.424 199.967 17.32 200.543 18.184V8.368H204.263V25H201.119ZM219.236 25C219.06 24.424 218.86 23.832 218.636 23.224C218.428 22.616 218.22 22.008 218.012 21.4H211.532C211.324 22.008 211.108 22.616 210.884 23.224C210.676 23.832 210.484 24.424 210.308 25H206.42C207.044 23.208 207.636 21.552 208.196 20.032C208.756 18.512 209.3 17.08 209.828 15.736C210.372 14.392 210.9 13.12 211.412 11.92C211.94 10.704 212.484 9.52 213.044 8.368H216.62C217.164 9.52 217.7 10.704 218.228 11.92C218.756 13.12 219.284 14.392 219.812 15.736C220.356 17.08 220.908 18.512 221.468 20.032C222.028 21.552 222.62 23.208 223.244 25H219.236ZM214.748 12.136C214.668 12.376 214.548 12.704 214.388 13.12C214.228 13.536 214.044 14.016 213.836 14.56C213.628 15.104 213.396 15.704 213.14 16.36C212.9 17.016 212.652 17.704 212.396 18.424H217.124C216.868 17.704 216.62 17.016 216.38 16.36C216.14 15.704 215.908 15.104 215.684 14.56C215.476 14.016 215.292 13.536 215.132 13.12C214.972 12.704 214.844 12.376 214.748 12.136ZM236.509 21.784V25H225.397V8.368H229.141V21.784H236.509Z" fill="#E2D784"/>
</svg>
