<svg width="400" height="400" viewBox="0 0 400 400" fill="none" xmlns="http://www.w3.org/2000/svg">
<path d="M323.812 259C330.439 259 335.832 253.626 335.617 247.002C334.796 221.686 331.38 196.755 325.497 173.279C318.688 146.102 308.707 121.408 296.125 100.608C283.542 79.8078 268.605 63.308 252.165 52.051C235.726 40.7939 218.106 35 200.312 35C182.518 35 164.898 40.7939 148.458 52.051C132.018 63.308 117.081 79.8078 104.499 100.608C91.9164 121.408 81.9355 146.102 75.126 173.279C69.2439 196.755 65.8276 221.686 65.0062 247.002C64.7913 253.626 70.1843 259 76.8117 259L323.812 259Z" fill="#323232"/>
<rect x="166" y="178" width="68.2139" height="128.131" rx="13.7769" fill="#EBC187" stroke="#323232" stroke-width="4" stroke-linecap="round"/>
<path d="M167.896 260.634V219.678H236.5C231.333 240.68 200.523 261.768 167.896 260.634Z" fill="#7E7E7E" fill-opacity="0.45"/>
<path d="M157 175.5C157 187.189 146.45 197 133 197C119.55 197 109 187.189 109 175.5C109 163.811 119.55 154 133 154C146.45 154 157 163.811 157 175.5Z" fill="#EBC187" stroke="#323232" stroke-width="4"/>
<path d="M244 175.5C244 187.189 254.55 197 268 197C281.45 197 292 187.189 292 175.5C292 163.811 281.45 154 268 154C254.55 154 244 163.811 244 175.5Z" fill="#EBC187" stroke="#323232" stroke-width="4"/>
<path d="M267 165.261C267 187.713 261.042 204.834 249.986 216.337C238.941 227.828 222.532 234 201.03 234C179.526 234 162.842 227.827 151.529 216.321C140.211 204.81 134 187.69 134 165.261C134 142.804 140.232 119.379 151.779 101.629C163.311 83.9028 180.009 72 201.03 72C222.043 72 238.472 83.8934 249.74 101.612C261.025 119.358 267 142.787 267 165.261Z" fill="#EBC187" stroke="#323232" stroke-width="4" stroke-linecap="round"/>
<path d="M201 164C199.029 170.812 198 174.371 198 181.458C200.64 182.72 203.163 183.036 207.5 183" stroke="#323232" stroke-width="4" stroke-linecap="round" stroke-linejoin="round"/>
<path d="M165.768 175.225C167.829 175.225 169.657 174.11 170.953 172.382C172.249 170.655 173.035 168.291 173.035 165.702C173.035 163.112 172.249 160.748 170.953 159.021C169.657 157.293 167.829 156.178 165.768 156.178C163.706 156.178 161.878 157.293 160.582 159.021C159.287 160.748 158.5 163.112 158.5 165.702C158.5 168.291 159.287 170.655 160.582 172.382C161.878 174.11 163.706 175.225 165.768 175.225Z" fill="#323232" stroke="#323232" stroke-linecap="round"/>
<circle cx="168.616" cy="163.487" r="2.5" fill="white" stroke="#323232"/>
<path d="M237.768 175.225C239.829 175.225 241.657 174.11 242.953 172.382C244.249 170.655 245.035 168.291 245.035 165.702C245.035 163.112 244.249 160.748 242.953 159.021C241.657 157.293 239.829 156.178 237.768 156.178C235.706 156.178 233.878 157.293 232.582 159.021C231.287 160.748 230.5 163.112 230.5 165.702C230.5 168.291 231.287 170.655 232.582 172.382C233.878 174.11 235.706 175.225 237.768 175.225Z" fill="#323232" stroke="#323232" stroke-linecap="round"/>
<circle cx="240.616" cy="163.487" r="2" fill="white"/>
<path d="M193 198.5C196 202.167 203.8 207.3 211 198.5" stroke="#323232" stroke-width="4" stroke-linecap="round" stroke-linejoin="round"/>
<g filter="url(#filter0_f_206_373)">
<ellipse cx="161.5" cy="193.5" rx="9.5" ry="5.5" fill="#FC9D80"/>
</g>
<g filter="url(#filter1_f_206_373)">
<ellipse cx="240.5" cy="193.5" rx="9.5" ry="5.5" fill="#FC9D80"/>
</g>
<path d="M217 99C195.149 141.401 177.136 150.762 130 155C120.5 90.5 135.661 76.8036 206.5 66C264.144 85.2209 265.619 103.613 267 155C232.433 145.149 229.344 130.803 217 99Z" fill="#323232"/>
<path d="M166.637 253.566C182.781 281.54 221.874 279.35 234.064 253.821C234.396 253.127 235.144 252.922 235.623 253.139C262.582 265.357 280.284 278.353 292.373 295.321C304.476 312.308 311.102 333.482 315.512 362.356C315.604 362.958 315.132 363.5 314.538 363.5H84.4712C83.8781 363.5 83.4054 362.956 83.5001 362.354C88.2635 332.036 96.0978 310.611 108.931 293.851C121.765 277.091 139.747 264.803 165.18 253.032C165.637 252.82 166.303 252.988 166.637 253.566Z" fill="#9461FF" stroke="#323232" stroke-width="4" stroke-linecap="round" stroke-linejoin="round"/>
<path d="M249.5 260C234 296.5 169.5 297 154 257.5" stroke="#323232" stroke-width="4"/>
<path d="M233 302.322H276V327.026C276 338.9 266.374 348.526 254.5 348.526C242.626 348.526 233 338.9 233 327.026V302.322Z" fill="#FFD872" stroke="#323232" stroke-width="4"/>
<line x1="233.136" y1="314.344" x2="275.864" y2="314.344" stroke="#323232" stroke-width="4"/>
<path d="M248.272 338.779C247.921 338.779 247.613 338.759 247.35 338.718C247.08 338.683 246.852 338.639 246.664 338.586V336.318C246.852 336.359 247.054 336.397 247.271 336.433C247.481 336.474 247.707 336.494 247.947 336.494C248.264 336.494 248.548 336.433 248.8 336.31C249.052 336.192 249.251 335.967 249.397 335.633C249.544 335.299 249.617 334.818 249.617 334.191V322.15H252.342V334.174C252.342 335.275 252.169 336.163 251.823 336.837C251.483 337.517 251.006 338.009 250.391 338.313C249.781 338.624 249.075 338.779 248.272 338.779ZM263.161 331.432C263.161 332.193 262.977 332.855 262.607 333.418C262.238 333.98 261.699 334.414 260.99 334.719C260.287 335.023 259.432 335.176 258.424 335.176C257.979 335.176 257.542 335.146 257.114 335.088C256.692 335.029 256.285 334.944 255.893 334.833C255.506 334.716 255.137 334.572 254.785 334.402V331.871C255.395 332.141 256.027 332.384 256.684 332.601C257.34 332.817 257.99 332.926 258.635 332.926C259.08 332.926 259.438 332.867 259.707 332.75C259.982 332.633 260.182 332.472 260.305 332.267C260.428 332.062 260.489 331.827 260.489 331.563C260.489 331.241 260.381 330.966 260.164 330.737C259.947 330.509 259.648 330.295 259.268 330.096C258.893 329.896 258.468 329.683 257.993 329.454C257.694 329.313 257.369 329.144 257.018 328.944C256.666 328.739 256.332 328.49 256.016 328.197C255.699 327.904 255.438 327.55 255.233 327.134C255.034 326.712 254.935 326.208 254.935 325.622C254.935 324.854 255.11 324.198 255.462 323.653C255.813 323.108 256.314 322.692 256.965 322.405C257.621 322.112 258.395 321.966 259.285 321.966C259.953 321.966 260.589 322.045 261.192 322.203C261.802 322.355 262.438 322.578 263.1 322.871L262.221 324.989C261.629 324.749 261.099 324.564 260.63 324.436C260.161 324.301 259.684 324.233 259.197 324.233C258.857 324.233 258.567 324.289 258.327 324.4C258.087 324.506 257.905 324.658 257.782 324.857C257.659 325.051 257.598 325.276 257.598 325.534C257.598 325.839 257.686 326.097 257.861 326.308C258.043 326.513 258.312 326.712 258.67 326.905C259.033 327.099 259.484 327.324 260.023 327.582C260.68 327.893 261.239 328.218 261.702 328.558C262.171 328.892 262.531 329.287 262.783 329.744C263.035 330.195 263.161 330.758 263.161 331.432Z" fill="black"/>
<path d="M189.609 163.611C198.886 159.905 203.929 159.813 212.609 163.611" stroke="#323232" stroke-width="4" stroke-linecap="round"/>
<path d="M143 158.799L135.109 151.135" stroke="#323232" stroke-width="4"/>
<path d="M257.049 154.439L265.609 150.635" stroke="#323232" stroke-width="4"/>
<path fill-rule="evenodd" clip-rule="evenodd" d="M167.769 141.07L171.355 144.657L141.657 174.355L140.255 172.953C140.093 172.311 139.956 171.658 139.843 170.994C139.509 169.031 139.41 167.081 139.525 165.173L163.657 141.041C165.045 140.942 166.419 140.954 167.769 141.07Z" fill="white" fill-opacity="0.15"/>
<path d="M189.001 162.631C191.189 175.493 182.426 187.749 169.376 189.969C156.326 192.189 144.003 183.521 141.814 170.659C139.626 157.797 148.39 145.541 161.44 143.321C174.49 141.101 186.813 149.769 189.001 162.631Z" fill="url(#paint0_linear_206_373)" fill-opacity="0.3" stroke="#323232" stroke-width="4"/>
<path fill-rule="evenodd" clip-rule="evenodd" d="M262.886 167.612C262.957 165.865 262.848 164.086 262.543 162.296C262.512 162.111 262.478 161.927 262.443 161.744L259.941 159.243L228.78 190.404L229.681 191.305C232.396 192.086 235.273 192.434 238.217 192.28L262.886 167.612Z" fill="white" fill-opacity="0.15"/>
<path d="M260.571 162.631C262.759 175.493 253.996 187.749 240.946 189.969C227.896 192.189 215.573 183.521 213.384 170.659C211.196 157.797 219.96 145.541 233.01 143.321C246.06 141.101 258.383 149.769 260.571 162.631Z" fill="url(#paint1_linear_206_373)" fill-opacity="0.3" stroke="#323232" stroke-width="4"/>
<defs>
<filter id="filter0_f_206_373" x="140" y="176" width="43" height="35" filterUnits="userSpaceOnUse" color-interpolation-filters="sRGB">
<feFlood flood-opacity="0" result="BackgroundImageFix"/>
<feBlend mode="normal" in="SourceGraphic" in2="BackgroundImageFix" result="shape"/>
<feGaussianBlur stdDeviation="6" result="effect1_foregroundBlur_206_373"/>
</filter>
<filter id="filter1_f_206_373" x="219" y="176" width="43" height="35" filterUnits="userSpaceOnUse" color-interpolation-filters="sRGB">
<feFlood flood-opacity="0" result="BackgroundImageFix"/>
<feBlend mode="normal" in="SourceGraphic" in2="BackgroundImageFix" result="shape"/>
<feGaussianBlur stdDeviation="6" result="effect1_foregroundBlur_206_373"/>
</filter>
<linearGradient id="paint0_linear_206_373" x1="161.104" y1="141.349" x2="185.109" y2="190.635" gradientUnits="userSpaceOnUse">
<stop stop-color="white"/>
<stop offset="1" stop-color="#C0C8FE" stop-opacity="0"/>
</linearGradient>
<linearGradient id="paint1_linear_206_373" x1="232.674" y1="141.349" x2="256.679" y2="190.635" gradientUnits="userSpaceOnUse">
<stop stop-color="white"/>
<stop offset="1" stop-color="#C0C8FE" stop-opacity="0"/>
</linearGradient>
</defs>
</svg>
