<svg width="350" height="390" viewBox="0 0 350 390" fill="none" xmlns="http://www.w3.org/2000/svg">
<path d="M298.812 266C305.439 266 310.832 260.626 310.617 254.002C309.796 228.686 306.38 203.755 300.497 180.279C293.688 153.102 283.707 128.408 271.125 107.608C258.542 86.8078 243.605 70.308 227.165 59.051C210.726 47.7939 193.106 42 175.312 42C157.518 42 139.898 47.7939 123.458 59.051C107.018 70.308 92.0811 86.8078 79.4987 107.608C66.9164 128.408 56.9355 153.102 50.126 180.279C44.2439 203.755 40.8276 228.686 40.0062 254.002C39.7913 260.626 45.1843 266 51.8117 266L298.812 266Z" fill="#323232"/>
<rect x="141" y="185" width="68.2139" height="128.131" rx="13.7769" fill="#ECCB9D" stroke="#323232" stroke-width="4" stroke-linecap="round"/>
<path d="M142.896 267.634V226.678H211.5C206.333 247.68 175.523 268.768 142.896 267.634Z" fill="#7E7E7E" fill-opacity="0.45"/>
<path d="M132 182.5C132 194.189 121.45 204 108 204C94.5501 204 84 194.189 84 182.5C84 170.811 94.5501 161 108 161C121.45 161 132 170.811 132 182.5Z" fill="#ECCB9D" stroke="#323232" stroke-width="4"/>
<path d="M219 182.5C219 194.189 229.55 204 243 204C256.45 204 267 194.189 267 182.5C267 170.811 256.45 161 243 161C229.55 161 219 170.811 219 182.5Z" fill="#ECCB9D" stroke="#323232" stroke-width="4"/>
<path d="M242 172.261C242 194.713 236.042 211.834 224.986 223.337C213.941 234.828 197.532 241 176.03 241C154.526 241 137.842 234.827 126.529 223.321C115.211 211.81 109 194.69 109 172.261C109 149.804 115.232 126.379 126.779 108.629C138.311 90.9028 155.009 79 176.03 79C197.043 79 213.472 90.8934 224.74 108.612C236.025 126.358 242 149.787 242 172.261Z" fill="#ECCB9D" stroke="#323232" stroke-width="4" stroke-linecap="round"/>
<path d="M176 171C174.029 177.812 173 181.371 173 188.458C175.64 189.72 178.163 190.036 182.5 190" stroke="#323232" stroke-width="4" stroke-linecap="round" stroke-linejoin="round"/>
<path d="M140.768 182.225C142.829 182.225 144.657 181.11 145.953 179.382C147.249 177.655 148.035 175.291 148.035 172.702C148.035 170.112 147.249 167.748 145.953 166.021C144.657 164.293 142.829 163.178 140.768 163.178C138.706 163.178 136.878 164.293 135.582 166.021C134.287 167.748 133.5 170.112 133.5 172.702C133.5 175.291 134.287 177.655 135.582 179.382C136.878 181.11 138.706 182.225 140.768 182.225Z" fill="#323232" stroke="#323232" stroke-linecap="round"/>
<circle cx="143.616" cy="170.487" r="2.5" fill="white" stroke="#323232"/>
<path d="M212.768 182.225C214.829 182.225 216.657 181.11 217.953 179.382C219.249 177.655 220.035 175.291 220.035 172.702C220.035 170.112 219.249 167.748 217.953 166.021C216.657 164.293 214.829 163.178 212.768 163.178C210.706 163.178 208.878 164.293 207.582 166.021C206.287 167.748 205.5 170.112 205.5 172.702C205.5 175.291 206.287 177.655 207.582 179.382C208.878 181.11 210.706 182.225 212.768 182.225Z" fill="#323232" stroke="#323232" stroke-linecap="round"/>
<circle cx="215.616" cy="170.487" r="2" fill="white"/>
<path d="M168 205.5C171 209.167 178.8 214.3 186 205.5" stroke="#323232" stroke-width="4" stroke-linecap="round" stroke-linejoin="round"/>
<g filter="url(#filter0_f_203_489)">
<ellipse cx="136.5" cy="200.5" rx="9.5" ry="5.5" fill="#FC9D80"/>
</g>
<g filter="url(#filter1_f_203_489)">
<ellipse cx="215.5" cy="200.5" rx="9.5" ry="5.5" fill="#FC9D80"/>
</g>
<path d="M192 106C170.149 148.401 152.136 157.762 105 162C95.5001 97.5 110.661 83.8036 181.5 73C239.144 92.2209 240.619 110.613 242 162C207.433 152.149 204.344 137.803 192 106Z" fill="#323232"/>
<path d="M141.637 260.566C157.781 288.54 196.874 286.35 209.064 260.821C209.396 260.127 210.144 259.922 210.623 260.139C237.582 272.357 255.284 285.353 267.373 302.321C279.476 319.308 286.102 340.482 290.512 369.356C290.604 369.958 290.132 370.5 289.538 370.5H59.4712C58.8781 370.5 58.4054 369.956 58.5001 369.354C63.2635 339.036 71.0978 317.611 83.931 300.851C96.765 284.091 114.747 271.803 140.18 260.032C140.637 259.82 141.303 259.988 141.637 260.566Z" fill="#9461FF" stroke="#323232" stroke-width="4" stroke-linecap="round" stroke-linejoin="round"/>
<path d="M224.5 267C209 303.5 144.5 304 129 264.5" stroke="#323232" stroke-width="4"/>
<path d="M208 309.322H251V334.026C251 345.9 241.374 355.526 229.5 355.526C217.626 355.526 208 345.9 208 334.026V309.322Z" fill="#FFD872" stroke="#323232" stroke-width="4"/>
<line x1="208.136" y1="321.344" x2="250.864" y2="321.344" stroke="#323232" stroke-width="4"/>
<path d="M223.272 345.779C222.921 345.779 222.613 345.759 222.35 345.718C222.08 345.683 221.852 345.639 221.664 345.586V343.318C221.852 343.359 222.054 343.397 222.271 343.433C222.481 343.474 222.707 343.494 222.947 343.494C223.264 343.494 223.548 343.433 223.8 343.31C224.052 343.192 224.251 342.967 224.397 342.633C224.544 342.299 224.617 341.818 224.617 341.191V329.15H227.342V341.174C227.342 342.275 227.169 343.163 226.823 343.837C226.483 344.517 226.006 345.009 225.391 345.313C224.781 345.624 224.075 345.779 223.272 345.779ZM238.161 338.432C238.161 339.193 237.977 339.855 237.607 340.418C237.238 340.98 236.699 341.414 235.99 341.719C235.287 342.023 234.432 342.176 233.424 342.176C232.979 342.176 232.542 342.146 232.114 342.088C231.692 342.029 231.285 341.944 230.893 341.833C230.506 341.716 230.137 341.572 229.785 341.402V338.871C230.395 339.141 231.027 339.384 231.684 339.601C232.34 339.817 232.99 339.926 233.635 339.926C234.08 339.926 234.438 339.867 234.707 339.75C234.982 339.633 235.182 339.472 235.305 339.267C235.428 339.062 235.489 338.827 235.489 338.563C235.489 338.241 235.381 337.966 235.164 337.737C234.947 337.509 234.648 337.295 234.268 337.096C233.893 336.896 233.468 336.683 232.993 336.454C232.694 336.313 232.369 336.144 232.018 335.944C231.666 335.739 231.332 335.49 231.016 335.197C230.699 334.904 230.438 334.55 230.233 334.134C230.034 333.712 229.935 333.208 229.935 332.622C229.935 331.854 230.11 331.198 230.462 330.653C230.813 330.108 231.314 329.692 231.965 329.405C232.621 329.112 233.395 328.966 234.285 328.966C234.953 328.966 235.589 329.045 236.192 329.203C236.802 329.355 237.438 329.578 238.1 329.871L237.221 331.989C236.629 331.749 236.099 331.564 235.63 331.436C235.161 331.301 234.684 331.233 234.197 331.233C233.857 331.233 233.567 331.289 233.327 331.4C233.087 331.506 232.905 331.658 232.782 331.857C232.659 332.051 232.598 332.276 232.598 332.534C232.598 332.839 232.686 333.097 232.861 333.308C233.043 333.513 233.312 333.712 233.67 333.905C234.033 334.099 234.484 334.324 235.023 334.582C235.68 334.893 236.239 335.218 236.702 335.558C237.171 335.892 237.531 336.287 237.783 336.744C238.035 337.195 238.161 337.758 238.161 338.432Z" fill="black"/>
<path d="M164.609 170.611C173.886 166.905 178.929 166.813 187.609 170.611" stroke="#323232" stroke-width="4" stroke-linecap="round"/>
<path d="M118 165.799L110.109 158.135" stroke="#323232" stroke-width="4"/>
<path d="M232.049 161.439L240.609 157.635" stroke="#323232" stroke-width="4"/>
<path fill-rule="evenodd" clip-rule="evenodd" d="M142.769 148.07L146.355 151.657L116.657 181.355L115.255 179.953C115.093 179.311 114.956 178.658 114.843 177.994C114.509 176.031 114.41 174.081 114.525 172.173L138.657 148.041C140.045 147.942 141.419 147.954 142.769 148.07Z" fill="white" fill-opacity="0.15"/>
<path d="M164.001 169.631C166.189 182.493 157.426 194.749 144.376 196.969C131.326 199.189 119.003 190.521 116.814 177.659C114.626 164.797 123.39 152.541 136.44 150.321C149.49 148.101 161.813 156.769 164.001 169.631Z" fill="url(#paint0_linear_203_489)" fill-opacity="0.3" stroke="#323232" stroke-width="4"/>
<path fill-rule="evenodd" clip-rule="evenodd" d="M237.886 174.612C237.957 172.865 237.848 171.086 237.543 169.296C237.512 169.111 237.478 168.927 237.443 168.744L234.941 166.243L203.78 197.404L204.681 198.305C207.396 199.086 210.273 199.434 213.217 199.28L237.886 174.612Z" fill="white" fill-opacity="0.15"/>
<path d="M235.571 169.631C237.759 182.493 228.996 194.749 215.946 196.969C202.896 199.189 190.573 190.521 188.384 177.659C186.196 164.797 194.96 152.541 208.01 150.321C221.06 148.101 233.383 156.769 235.571 169.631Z" fill="url(#paint1_linear_203_489)" fill-opacity="0.3" stroke="#323232" stroke-width="4"/>
<defs>
<filter id="filter0_f_203_489" x="115" y="183" width="43" height="35" filterUnits="userSpaceOnUse" color-interpolation-filters="sRGB">
<feFlood flood-opacity="0" result="BackgroundImageFix"/>
<feBlend mode="normal" in="SourceGraphic" in2="BackgroundImageFix" result="shape"/>
<feGaussianBlur stdDeviation="6" result="effect1_foregroundBlur_203_489"/>
</filter>
<filter id="filter1_f_203_489" x="194" y="183" width="43" height="35" filterUnits="userSpaceOnUse" color-interpolation-filters="sRGB">
<feFlood flood-opacity="0" result="BackgroundImageFix"/>
<feBlend mode="normal" in="SourceGraphic" in2="BackgroundImageFix" result="shape"/>
<feGaussianBlur stdDeviation="6" result="effect1_foregroundBlur_203_489"/>
</filter>
<linearGradient id="paint0_linear_203_489" x1="136.104" y1="148.349" x2="160.109" y2="197.635" gradientUnits="userSpaceOnUse">
<stop stop-color="white"/>
<stop offset="1" stop-color="#C0C8FE" stop-opacity="0"/>
</linearGradient>
<linearGradient id="paint1_linear_203_489" x1="207.674" y1="148.349" x2="231.679" y2="197.635" gradientUnits="userSpaceOnUse">
<stop stop-color="white"/>
<stop offset="1" stop-color="#C0C8FE" stop-opacity="0"/>
</linearGradient>
</defs>
</svg>
